<mxfile host="app.diagrams.net" modified="2020-04-07T04:45:33.043Z" agent="5.0 (Windows NT 10.0; Win64; x64) AppleWebKit/537.36 (KHTML, like Gecko) Chrome/80.0.3987.149 Safari/537.36" etag="_473b5EgbqkGBlQKVpTm" version="12.9.8" type="github">
  <diagram name="Page-1" id="e3a06f82-3646-2815-327d-82caf3d4e204">
    <mxGraphModel dx="1022" dy="469" grid="1" gridSize="10" guides="1" tooltips="1" connect="1" arrows="1" fold="1" page="1" pageScale="1.5" pageWidth="1169" pageHeight="826" background="none" math="0" shadow="0" extFonts="微軟正黑體^https://fonts.googleapis.com/css?family=%E5%BE%AE%E8%BB%9F%E6%AD%A3%E9%BB%91%E9%AB%94">
      <root>
        <mxCell id="0" style=";html=1;" />
        <mxCell id="1" style=";html=1;" parent="0" />
        <mxCell id="jZmFj0mmVcBt7xnAqEcb-47" value="&lt;font style=&quot;font-size: 28px&quot; face=&quot;微軟正黑體&quot;&gt;XXXX&lt;/font&gt;" style="whiteSpace=wrap;html=1;fillColor=#d5e8d4;fontSize=14;strokeColor=none;verticalAlign=top;" parent="1" vertex="1">
          <mxGeometry x="635.5" y="530" width="430" height="180" as="geometry" />
        </mxCell>
        <mxCell id="6a7d8f32e03d9370-60" value="&lt;font style=&quot;font-size: 28px&quot;&gt;XXXX&lt;/font&gt;" style="whiteSpace=wrap;html=1;fillColor=#dae8fc;fontSize=14;strokeColor=none;verticalAlign=top;" parent="1" vertex="1">
          <mxGeometry x="635.5" y="725" width="430" height="390" as="geometry" />
        </mxCell>
        <mxCell id="6a7d8f32e03d9370-58" value="&lt;font style=&quot;font-size: 28px&quot;&gt;XXXX&lt;/font&gt;" style="whiteSpace=wrap;html=1;fillColor=#F8CECC;fontSize=14;strokeColor=none;verticalAlign=top;" parent="1" vertex="1">
          <mxGeometry x="1115.5" y="140" width="410" height="372" as="geometry" />
        </mxCell>
        <mxCell id="6a7d8f32e03d9370-59" value="&lt;font style=&quot;font-size: 28px&quot; face=&quot;微軟正黑體&quot;&gt;XXXX&lt;/font&gt;" style="whiteSpace=wrap;html=1;fillColor=#EDEDED;fontSize=14;strokeColor=none;verticalAlign=top;" parent="1" vertex="1">
          <mxGeometry x="635.5" y="140" width="430" height="372" as="geometry" />
        </mxCell>
        <mxCell id="6a7d8f32e03d9370-57" value="&lt;font style=&quot;font-size: 28px&quot;&gt;XXXX&lt;/font&gt;" style="whiteSpace=wrap;html=1;fillColor=#FFD470;gradientColor=none;fontSize=14;strokeColor=none;verticalAlign=top;" parent="1" vertex="1">
          <mxGeometry x="175.5" y="140" width="410" height="372" as="geometry" />
        </mxCell>
        <mxCell id="6a7d8f32e03d9370-36" style="edgeStyle=none;rounded=0;html=1;startSize=6;endSize=6;jettySize=auto;orthogonalLoop=1;fontSize=14;endArrow=classic;endFill=1;strokeWidth=1;exitX=0.181;exitY=0.857;exitDx=0;exitDy=0;exitPerimeter=0;" parent="1" source="6a7d8f32e03d9370-1" target="jZmFj0mmVcBt7xnAqEcb-12" edge="1">
          <mxGeometry relative="1" as="geometry" />
        </mxCell>
        <mxCell id="6a7d8f32e03d9370-1" value="Client" style="verticalLabelPosition=bottom;aspect=fixed;html=1;verticalAlign=top;strokeColor=none;shape=mxgraph.citrix.laptop_2;fillColor=#66B2FF;gradientColor=#0066CC;fontSize=14;" parent="1" vertex="1">
          <mxGeometry x="1249.5" y="210" width="116" height="86.5" as="geometry" />
        </mxCell>
        <mxCell id="6a7d8f32e03d9370-37" style="edgeStyle=none;rounded=0;html=1;startSize=6;endSize=6;jettySize=auto;orthogonalLoop=1;fontSize=14;endArrow=none;endFill=0;strokeWidth=1;startArrow=classic;startFill=1;" parent="1" source="6a7d8f32e03d9370-6" target="jZmFj0mmVcBt7xnAqEcb-12" edge="1">
          <mxGeometry relative="1" as="geometry" />
        </mxCell>
        <mxCell id="6a7d8f32e03d9370-6" value="Client" style="verticalLabelPosition=bottom;aspect=fixed;html=1;verticalAlign=top;strokeColor=none;shape=mxgraph.citrix.pda;fillColor=#66B2FF;gradientColor=#0066CC;fontSize=14;" parent="1" vertex="1">
          <mxGeometry x="1305.5" y="372" width="30" height="61" as="geometry" />
        </mxCell>
        <mxCell id="6a7d8f32e03d9370-62" value="XXX網絡圖" style="text;strokeColor=none;fillColor=none;html=1;fontSize=44;fontStyle=1;verticalAlign=middle;align=center;fontFamily=微軟正黑體;" parent="1" vertex="1">
          <mxGeometry x="420" y="40" width="861" height="40" as="geometry" />
        </mxCell>
        <mxCell id="jZmFj0mmVcBt7xnAqEcb-54" value="" style="edgeStyle=none;rounded=0;orthogonalLoop=1;jettySize=auto;html=1;labelBackgroundColor=none;startArrow=none;startFill=0;startSize=6;endArrow=classic;endFill=1;endSize=6;strokeWidth=1;fontFamily=微軟正黑體;fontSize=32;" parent="1" edge="1">
          <mxGeometry relative="1" as="geometry">
            <mxPoint x="844.5" y="472" as="sourcePoint" />
            <mxPoint x="844.5" y="585" as="targetPoint" />
          </mxGeometry>
        </mxCell>
        <mxCell id="jZmFj0mmVcBt7xnAqEcb-9" value="" style="verticalLabelPosition=bottom;aspect=fixed;html=1;verticalAlign=top;strokeColor=none;align=center;outlineConnect=0;shape=mxgraph.citrix.database;" parent="1" vertex="1">
          <mxGeometry x="820.75" y="402" width="59.5" height="70" as="geometry" />
        </mxCell>
        <mxCell id="jZmFj0mmVcBt7xnAqEcb-23" value="" style="edgeStyle=none;rounded=0;orthogonalLoop=1;jettySize=auto;html=1;labelBackgroundColor=none;startArrow=none;startFill=0;endArrow=classic;endFill=1;" parent="1" source="jZmFj0mmVcBt7xnAqEcb-11" target="jZmFj0mmVcBt7xnAqEcb-22" edge="1">
          <mxGeometry relative="1" as="geometry" />
        </mxCell>
        <mxCell id="jZmFj0mmVcBt7xnAqEcb-11" value="" style="verticalLabelPosition=bottom;aspect=fixed;html=1;verticalAlign=top;strokeColor=none;align=center;outlineConnect=0;shape=mxgraph.citrix.tower_server;" parent="1" vertex="1">
          <mxGeometry x="833" y="835" width="65" height="85" as="geometry" />
        </mxCell>
        <mxCell id="jZmFj0mmVcBt7xnAqEcb-13" value="&lt;font style=&quot;font-size: 22px&quot;&gt;XXX&lt;/font&gt;" style="edgeStyle=orthogonalEdgeStyle;rounded=0;orthogonalLoop=1;jettySize=auto;html=1;labelBackgroundColor=none;" parent="1" source="jZmFj0mmVcBt7xnAqEcb-12" target="jZmFj0mmVcBt7xnAqEcb-9" edge="1">
          <mxGeometry relative="1" as="geometry" />
        </mxCell>
        <mxCell id="jZmFj0mmVcBt7xnAqEcb-12" value="" style="verticalLabelPosition=bottom;aspect=fixed;html=1;verticalAlign=top;strokeColor=none;align=center;outlineConnect=0;shape=mxgraph.citrix.tower_server;" parent="1" vertex="1">
          <mxGeometry x="818" y="242" width="65" height="85" as="geometry" />
        </mxCell>
        <mxCell id="jZmFj0mmVcBt7xnAqEcb-21" value="&lt;span style=&quot;font-size: 22px&quot;&gt;XXX&lt;br&gt;&lt;/span&gt;" style="text;html=1;strokeColor=none;fillColor=none;align=center;verticalAlign=middle;whiteSpace=wrap;rounded=0;" parent="1" vertex="1">
          <mxGeometry x="730.5" y="843.75" width="85" height="67.5" as="geometry" />
        </mxCell>
        <mxCell id="jZmFj0mmVcBt7xnAqEcb-22" value="" style="verticalLabelPosition=bottom;aspect=fixed;html=1;verticalAlign=top;strokeColor=none;align=center;outlineConnect=0;shape=mxgraph.citrix.database;" parent="1" vertex="1">
          <mxGeometry x="835.75" y="975" width="59.5" height="70" as="geometry" />
        </mxCell>
        <mxCell id="jZmFj0mmVcBt7xnAqEcb-24" value="&lt;span style=&quot;font-size: 22px&quot;&gt;XXX&lt;br&gt;&lt;/span&gt;" style="text;html=1;strokeColor=none;fillColor=none;align=center;verticalAlign=middle;whiteSpace=wrap;rounded=0;" parent="1" vertex="1">
          <mxGeometry x="823" y="1035" width="85" height="67.5" as="geometry" />
        </mxCell>
        <mxCell id="jZmFj0mmVcBt7xnAqEcb-27" value="" style="edgeStyle=orthogonalEdgeStyle;rounded=0;orthogonalLoop=1;jettySize=auto;html=1;labelBackgroundColor=none;startArrow=classic;startFill=1;endArrow=none;endFill=0;entryX=0.323;entryY=0.931;entryDx=0;entryDy=0;entryPerimeter=0;" parent="1" source="jZmFj0mmVcBt7xnAqEcb-11" target="6a7d8f32e03d9370-1" edge="1">
          <mxGeometry relative="1" as="geometry">
            <mxPoint x="897" y="866.2395662575871" as="sourcePoint" />
            <mxPoint x="1283.5" y="460" as="targetPoint" />
            <Array as="points">
              <mxPoint x="1287" y="862" />
            </Array>
          </mxGeometry>
        </mxCell>
        <mxCell id="jZmFj0mmVcBt7xnAqEcb-30" style="edgeStyle=none;rounded=0;html=1;startSize=6;endSize=6;jettySize=auto;orthogonalLoop=1;fontSize=14;endArrow=classic;endFill=1;strokeWidth=1;" parent="1" edge="1">
          <mxGeometry relative="1" as="geometry">
            <mxPoint x="1305" y="408.73404255319133" as="sourcePoint" />
            <mxPoint x="882.5" y="303" as="targetPoint" />
          </mxGeometry>
        </mxCell>
        <mxCell id="jZmFj0mmVcBt7xnAqEcb-31" style="edgeStyle=none;rounded=0;html=1;startSize=6;endSize=6;jettySize=auto;orthogonalLoop=1;fontSize=14;endArrow=none;endFill=0;strokeWidth=1;exitX=0.001;exitY=0.742;exitDx=0;exitDy=0;exitPerimeter=0;startArrow=classic;startFill=1;" parent="1" source="6a7d8f32e03d9370-1" edge="1">
          <mxGeometry relative="1" as="geometry">
            <mxPoint x="1245.5" y="287" as="sourcePoint" />
            <mxPoint x="882.5" y="275.9999877379785" as="targetPoint" />
          </mxGeometry>
        </mxCell>
        <mxCell id="jZmFj0mmVcBt7xnAqEcb-32" value="" style="verticalLabelPosition=bottom;aspect=fixed;html=1;verticalAlign=top;strokeColor=none;align=center;outlineConnect=0;shape=mxgraph.citrix.database;" parent="1" vertex="1">
          <mxGeometry x="345" y="398" width="59.5" height="70" as="geometry" />
        </mxCell>
        <mxCell id="jZmFj0mmVcBt7xnAqEcb-73" value="XXX" style="edgeStyle=orthogonalEdgeStyle;rounded=0;orthogonalLoop=1;jettySize=auto;html=1;labelBackgroundColor=none;startArrow=none;startFill=0;startSize=6;endArrow=classic;endFill=1;endSize=6;strokeColor=#000000;strokeWidth=1;fontFamily=微軟正黑體;fontSize=22;" parent="1" edge="1">
          <mxGeometry relative="1" as="geometry">
            <mxPoint x="374.8333333333335" y="325.9999999999998" as="sourcePoint" />
            <mxPoint x="374.8333333333335" y="397" as="targetPoint" />
            <Array as="points">
              <mxPoint x="375" y="360" />
              <mxPoint x="375" y="360" />
            </Array>
          </mxGeometry>
        </mxCell>
        <mxCell id="jZmFj0mmVcBt7xnAqEcb-33" value="" style="verticalLabelPosition=bottom;aspect=fixed;html=1;verticalAlign=top;strokeColor=none;align=center;outlineConnect=0;shape=mxgraph.citrix.tower_server;" parent="1" vertex="1">
          <mxGeometry x="342.25" y="242" width="65" height="85" as="geometry" />
        </mxCell>
        <mxCell id="jZmFj0mmVcBt7xnAqEcb-36" value="" style="edgeStyle=orthogonalEdgeStyle;rounded=0;orthogonalLoop=1;jettySize=auto;html=1;labelBackgroundColor=none;startArrow=none;startFill=0;endArrow=classic;endFill=1;" parent="1" source="jZmFj0mmVcBt7xnAqEcb-22" target="jZmFj0mmVcBt7xnAqEcb-32" edge="1">
          <mxGeometry relative="1" as="geometry">
            <mxPoint x="175.5" y="911.25" as="sourcePoint" />
            <mxPoint x="375.47058823529414" y="635" as="targetPoint" />
            <Array as="points">
              <mxPoint x="360" y="1000" />
            </Array>
          </mxGeometry>
        </mxCell>
        <mxCell id="jZmFj0mmVcBt7xnAqEcb-38" value="&lt;font style=&quot;font-size: 22px&quot;&gt;XXX&lt;/font&gt;" style="verticalLabelPosition=bottom;aspect=fixed;html=1;verticalAlign=top;strokeColor=none;align=center;outlineConnect=0;shape=mxgraph.citrix.cloud;" parent="1" vertex="1">
          <mxGeometry x="681" y="964" width="65" height="42.42" as="geometry" />
        </mxCell>
        <mxCell id="jZmFj0mmVcBt7xnAqEcb-41" style="edgeStyle=none;rounded=0;html=1;startSize=6;endSize=6;jettySize=auto;orthogonalLoop=1;fontSize=14;endArrow=classic;endFill=1;strokeWidth=1;exitX=0.181;exitY=0.857;exitDx=0;exitDy=0;exitPerimeter=0;strokeColor=#CC0000;" parent="1" target="jZmFj0mmVcBt7xnAqEcb-33" edge="1">
          <mxGeometry relative="1" as="geometry">
            <mxPoint x="817.9959999999996" y="284.7305" as="sourcePoint" />
            <mxPoint x="430.49999999999955" y="273.9999877379786" as="targetPoint" />
          </mxGeometry>
        </mxCell>
        <mxCell id="jZmFj0mmVcBt7xnAqEcb-42" style="edgeStyle=none;rounded=0;html=1;startSize=6;endSize=6;jettySize=auto;orthogonalLoop=1;fontSize=14;endArrow=none;endFill=0;strokeWidth=1;exitX=0.001;exitY=0.742;exitDx=0;exitDy=0;exitPerimeter=0;startArrow=classic;startFill=1;strokeColor=#CC0000;" parent="1" edge="1">
          <mxGeometry relative="1" as="geometry">
            <mxPoint x="818.6159999999995" y="274.183" as="sourcePoint" />
            <mxPoint x="406" y="274" as="targetPoint" />
          </mxGeometry>
        </mxCell>
        <mxCell id="jZmFj0mmVcBt7xnAqEcb-46" value="" style="edgeStyle=orthogonalEdgeStyle;rounded=0;orthogonalLoop=1;jettySize=auto;html=1;labelBackgroundColor=none;startArrow=classic;startFill=1;endArrow=none;endFill=0;entryX=0.323;entryY=0.931;entryDx=0;entryDy=0;entryPerimeter=0;" parent="1" source="jZmFj0mmVcBt7xnAqEcb-11" edge="1">
          <mxGeometry relative="1" as="geometry">
            <mxPoint x="924" y="900" as="sourcePoint" />
            <mxPoint x="1312.9680000000003" y="428.4715000000001" as="targetPoint" />
            <Array as="points">
              <mxPoint x="1313" y="890" />
            </Array>
          </mxGeometry>
        </mxCell>
        <mxCell id="jZmFj0mmVcBt7xnAqEcb-48" value="" style="verticalLabelPosition=bottom;aspect=fixed;html=1;verticalAlign=top;strokeColor=none;align=center;outlineConnect=0;shape=mxgraph.citrix.database;direction=south;rotation=-90;" parent="1" vertex="1">
          <mxGeometry x="815.5" y="590.25" width="70" height="59.5" as="geometry" />
        </mxCell>
        <mxCell id="jZmFj0mmVcBt7xnAqEcb-55" value="&lt;span style=&quot;font-size: 22px&quot;&gt;XXX&lt;br&gt;&lt;/span&gt;" style="text;html=1;strokeColor=none;fillColor=none;align=center;verticalAlign=middle;whiteSpace=wrap;rounded=0;" parent="1" vertex="1">
          <mxGeometry x="808" y="646" width="85" height="67.5" as="geometry" />
        </mxCell>
        <mxCell id="jZmFj0mmVcBt7xnAqEcb-56" value="" style="edgeStyle=orthogonalEdgeStyle;rounded=0;orthogonalLoop=1;jettySize=auto;html=1;labelBackgroundColor=none;startArrow=none;startFill=0;endArrow=classic;endFill=1;" parent="1" source="jZmFj0mmVcBt7xnAqEcb-48" target="jZmFj0mmVcBt7xnAqEcb-32" edge="1">
          <mxGeometry relative="1" as="geometry">
            <mxPoint x="845.75" y="1015" as="sourcePoint" />
            <mxPoint x="400" y="540" as="targetPoint" />
            <Array as="points">
              <mxPoint x="373" y="620" />
            </Array>
          </mxGeometry>
        </mxCell>
        <mxCell id="jZmFj0mmVcBt7xnAqEcb-57" style="edgeStyle=none;rounded=0;html=1;startSize=6;endSize=6;jettySize=auto;orthogonalLoop=1;fontSize=14;endArrow=classic;endFill=1;strokeWidth=1;strokeColor=#CC0000;" parent="1" target="jZmFj0mmVcBt7xnAqEcb-32" edge="1">
          <mxGeometry relative="1" as="geometry">
            <mxPoint x="819" y="434" as="sourcePoint" />
            <mxPoint x="408.75" y="432.26097516408936" as="targetPoint" />
          </mxGeometry>
        </mxCell>
        <mxCell id="jZmFj0mmVcBt7xnAqEcb-61" value="" style="edgeStyle=orthogonalEdgeStyle;rounded=0;orthogonalLoop=1;jettySize=auto;html=1;labelBackgroundColor=none;startArrow=classic;startFill=1;endArrow=classic;endFill=1;strokeColor=#CC0000;" parent="1" source="jZmFj0mmVcBt7xnAqEcb-22" target="jZmFj0mmVcBt7xnAqEcb-48" edge="1">
          <mxGeometry relative="1" as="geometry">
            <mxPoint x="1150" y="1030" as="sourcePoint" />
            <mxPoint x="1040" y="669.9999999999998" as="targetPoint" />
            <Array as="points">
              <mxPoint x="1040" y="1020" />
              <mxPoint x="1040" y="620" />
            </Array>
          </mxGeometry>
        </mxCell>
        <mxCell id="jZmFj0mmVcBt7xnAqEcb-62" value="" style="edgeStyle=none;rounded=0;orthogonalLoop=1;jettySize=auto;html=1;labelBackgroundColor=none;startArrow=classic;startFill=1;startSize=6;endArrow=none;endFill=0;endSize=6;strokeWidth=1;fontFamily=微軟正黑體;fontSize=32;" parent="1" edge="1">
          <mxGeometry relative="1" as="geometry">
            <mxPoint x="857" y="473" as="sourcePoint" />
            <mxPoint x="857" y="586" as="targetPoint" />
          </mxGeometry>
        </mxCell>
        <mxCell id="jZmFj0mmVcBt7xnAqEcb-63" value="" style="edgeStyle=orthogonalEdgeStyle;rounded=0;orthogonalLoop=1;jettySize=auto;html=1;labelBackgroundColor=none;startArrow=classic;startFill=1;endArrow=none;endFill=0;" parent="1" target="jZmFj0mmVcBt7xnAqEcb-32" edge="1">
          <mxGeometry relative="1" as="geometry">
            <mxPoint x="820" y="606" as="sourcePoint" />
            <mxPoint x="385" y="470" as="targetPoint" />
            <Array as="points">
              <mxPoint x="820" y="606" />
              <mxPoint x="385" y="606" />
            </Array>
          </mxGeometry>
        </mxCell>
        <mxCell id="jZmFj0mmVcBt7xnAqEcb-65" value="XXX" style="verticalLabelPosition=bottom;aspect=fixed;html=1;verticalAlign=top;strokeColor=none;align=center;outlineConnect=0;shape=mxgraph.citrix.reporting;fillColor=#F8CECC;fontFamily=微軟正黑體;fontSize=22;" parent="1" vertex="1">
          <mxGeometry x="90" y="920" width="133.69" height="150" as="geometry" />
        </mxCell>
        <mxCell id="jZmFj0mmVcBt7xnAqEcb-66" value="XXX" style="verticalLabelPosition=bottom;aspect=fixed;html=1;verticalAlign=top;strokeColor=none;align=center;outlineConnect=0;shape=mxgraph.citrix.reporting;fillColor=#F8CECC;fontFamily=微軟正黑體;fontSize=22;" parent="1" vertex="1">
          <mxGeometry x="90" y="649.75" width="133.69" height="150" as="geometry" />
        </mxCell>
        <mxCell id="jZmFj0mmVcBt7xnAqEcb-67" value="" style="edgeStyle=orthogonalEdgeStyle;rounded=0;orthogonalLoop=1;jettySize=auto;html=1;labelBackgroundColor=none;startArrow=none;startFill=0;endArrow=classic;endFill=1;strokeColor=#CC0000;" parent="1" edge="1">
          <mxGeometry relative="1" as="geometry">
            <mxPoint x="342.25" y="433" as="sourcePoint" />
            <mxPoint x="150" y="660" as="targetPoint" />
            <Array as="points">
              <mxPoint x="150" y="433" />
            </Array>
          </mxGeometry>
        </mxCell>
        <mxCell id="jZmFj0mmVcBt7xnAqEcb-68" style="edgeStyle=none;rounded=0;html=1;startSize=6;endSize=6;jettySize=auto;orthogonalLoop=1;fontSize=14;endArrow=classic;endFill=1;strokeWidth=1;strokeColor=#000000;dashed=1;" parent="1" edge="1">
          <mxGeometry relative="1" as="geometry">
            <mxPoint x="840" y="1035" as="sourcePoint" />
            <mxPoint x="230" y="1035" as="targetPoint" />
          </mxGeometry>
        </mxCell>
        <mxCell id="gbFb1WGAg2-f-wagdm7X-1" value="XXX" style="text;html=1;strokeColor=none;fillColor=none;align=center;verticalAlign=middle;whiteSpace=wrap;rounded=0;fontFamily=微軟正黑體;fontSize=22;" parent="1" vertex="1">
          <mxGeometry x="397" y="215" width="56.31" height="40.5" as="geometry" />
        </mxCell>
      </root>
    </mxGraphModel>
  </diagram>
</mxfile>
